<svg width="305" height="43" viewBox="0 0 305 43" fill="none" xmlns="http://www.w3.org/2000/svg">
<g clip-path="url(#clip0_177_366)">
<path d="M85.4777 7.8139V0L77.707 0V7.8139L85.4777 7.8139Z" fill="black"/>
<path d="M54.3949 11.7444V43H46.6242L31.0828 22.1629V43H11.6561L0 31.2792V11.7444H7.7707V35.1861H23.3121V11.7444H31.0828L46.6242 32.5815V11.7444H54.3949Z" fill="black"/>
<path d="M230.984 23.4653C231.111 22.8347 231.178 22.1814 231.178 21.5118C231.178 20.8422 231.111 20.1888 230.984 19.5583C230.984 19.5561 230.984 19.555 230.983 19.554C230.082 15.0979 226.163 11.7444 221.465 11.7444H209.809C205.111 11.7444 201.192 15.0979 200.291 19.554C200.29 19.555 200.29 19.5561 200.29 19.5583C200.162 20.1888 200.096 20.8422 200.096 21.5118V33.2326C200.096 33.9022 200.162 34.5556 200.29 35.1861C201.19 39.6444 205.109 43 209.809 43H221.465C226.165 43 230.084 39.6444 230.984 35.1861C231.111 34.5556 231.178 33.9022 231.178 33.2326H223.408C223.408 34.3114 222.538 35.1861 221.465 35.1861H209.809C208.736 35.1861 207.866 34.3114 207.866 33.2326V31.2792H221.465C224.643 31.2792 227.465 29.7446 229.237 27.3722C230.085 26.237 230.693 24.9087 230.984 23.4653ZM223.408 21.5118C223.408 22.5905 222.538 23.4653 221.465 23.4653H207.866V21.5118C207.866 20.433 208.736 19.5583 209.809 19.5583H211.946C211.946 19.5561 211.946 19.555 211.947 19.554H219.327C219.328 19.555 219.328 19.5561 219.328 19.5583H221.465C222.538 19.5583 223.408 20.433 223.408 21.5118Z" fill="black"/>
<path d="M260.318 31.2792H268.089C268.089 37.7528 262.871 43 256.433 43H248.662C242.225 43 237.006 37.7528 237.006 31.2792V23.4653C237.006 16.9917 242.225 11.7444 248.662 11.7444H256.433C262.871 11.7444 268.089 16.9917 268.089 23.4653H260.318C260.318 21.3077 258.579 19.5583 256.433 19.5583H248.662C246.517 19.5583 244.777 21.3077 244.777 23.4653V31.2792C244.777 33.4367 246.517 35.1861 248.662 35.1861H256.433C258.579 35.1861 260.318 33.4367 260.318 31.2792Z" fill="black"/>
<path d="M184.554 19.5583V31.2791C184.554 33.4367 186.294 35.1861 188.439 35.1861C189.181 35.1861 189.874 34.9777 190.463 34.6152L194.045 41.5566C192.382 42.4769 190.472 43 188.439 43C182.002 43 176.783 37.7527 176.783 31.2791V19.5583H170.955V11.7444H176.783V3.9305H184.554V11.7444H194.267V19.5583H184.554Z" fill="black"/>
<path d="M93.2484 35.1861V43H69.9363V35.1861H77.707V19.5583H69.9363V11.7444H85.4777V35.1861H93.2484Z" fill="black"/>
<path d="M116.561 11.7444H108.79C102.352 11.7444 97.1338 16.9917 97.1338 23.4653V31.2792C97.1338 37.7528 102.352 43 108.79 43H116.561C122.998 43 128.217 37.7528 128.217 31.2792V23.4653C128.217 16.9917 122.998 11.7444 116.561 11.7444ZM116.561 35.1861H108.79C106.644 35.1861 104.904 33.4367 104.904 31.2792V23.4653C104.904 21.3077 106.644 19.5583 108.79 19.5583H116.561C118.706 19.5583 120.446 21.3077 120.446 23.4653V31.2792C120.446 33.4367 118.706 35.1861 116.561 35.1861Z" fill="black"/>
<path d="M165.127 11.7444V43H151.529L141.815 16.9537V43H134.045V11.7444H147.643L157.357 37.7907V11.7444H165.127Z" fill="black"/>
<path d="M305 23.4417V42.9765H297.229V23.4417C297.229 21.2842 295.49 19.5348 293.344 19.5348H285.573C283.428 19.5348 281.688 21.2842 281.688 23.4417V42.9765H273.917V3.90695H281.688V12.3883C282.903 11.9564 284.211 11.7209 285.573 11.7209H293.344C299.782 11.7209 305 16.9681 305 23.4417Z" fill="black"/>
</g>
<defs>
<clipPath id="clip0_177_366">
<rect width="305" height="43" fill="white"/>
</clipPath>
</defs>
</svg>
